# xmcd
#
# Track frame offsets: 
#        150
#        23747
#        36057
#        53392
#        66377
#        79552
#        97060
#        112697
#        132167
#        145475
#        186230
#
# Disc length: 2715 seconds
#
# Revision: 2
# Processed by: cddbd v1.5.2PL0 Copyright (c) Steve Scherf et al.
# Submitted via: ExactAudioCopy v0.99pb4
#
DISCID=8c0a990b
DTITLE=The Cats - Live CD 1
DYEAR=1991
DGENRE=Pop
TTITLE0=The Cats - Rock and Roll Live)
TTITLE1=The Cats - Lies (Live)
TTITLE2=The Cats - Trying to explain (Live)
TTITLE3=The Cats - Without your love (Live)
TTITLE4=The Cats - Take me with you (Live)
TTITLE5=The Cats - Goodbye baby (Live)
TTITLE6=The Cats - Sail away (Live)
TTITLE7=The Cats - Lonely road (Live)
TTITLE8=The Cats - A room full of tears (Live)
TTITLE9=The Cats - medley: Jukebox, Lea, Why, Marian, Where have i bee
TTITLE9=n wrong (Live)
TTITLE10=The Cats - Let's dance (Live)
EXTD=
EXTT0=
EXTT1=
EXTT2=
EXTT3=
EXTT4=
EXTT5=
EXTT6=
EXTT7=
EXTT8=
EXTT9=
EXTT10=
PLAYORDER=
